<?xml version="1.0" encoding="utf-8"?>
<!-- Generator: Adobe Illustrator 16.0.2, SVG Export Plug-In . SVG Version: 6.00 Build 0)  -->
<!DOCTYPE svg PUBLIC "-//W3C//DTD SVG 1.1//EN" "http://www.w3.org/Graphics/SVG/1.1/DTD/svg11.dtd">
<svg version="1.1" id="Layer_8" xmlns="http://www.w3.org/2000/svg" xmlns:xlink="http://www.w3.org/1999/xlink" x="0px" y="0px"
	 width="234px" height="288px" viewBox="319.492 280.499 234 288" enable-background="new 319.492 280.499 234 288"
	 xml:space="preserve">
<g>
	<g id="Menu_10_">
		<rect id="XMLID_9933_" x="139.491" y="118.497" fill="none" width="612.006" height="612.001"/>
		<g id="XMLID_9830_">
			<path fill="#414042" d="M346.493,352.499c-4.967,0-9-4.032-9-9v-54c0-4.968,4.033-9,9-9c4.969,0,9,4.032,9,9v54
				C355.493,348.466,351.462,352.499,346.493,352.499z"/>
			<path fill="#414042" d="M346.493,568.5c-4.967,0-9-4.033-9-9V415.498c0-4.967,4.033-9,9-9c4.969,0,9,4.033,9,9V559.5
				C355.493,564.467,351.462,568.5,346.493,568.5z"/>
			<path fill="#414042" d="M436.497,568.5c-4.967,0-9-4.033-9-9v-54c0-4.969,4.033-9,9-9c4.969,0,9.002,4.031,9.002,9v54
				C445.499,564.467,441.466,568.5,436.497,568.5z"/>
			<path fill="#414042" d="M436.497,442.5c-4.967,0-9-4.033-9-9V289.499c0-4.968,4.033-9,9-9c4.969,0,9.002,4.032,9.002,9V433.5
				C445.499,438.467,441.466,442.5,436.497,442.5z"/>
			<path fill="#414042" d="M526.499,316.499c-4.969,0-9-4.032-9-9v-18c0-4.968,4.031-9,9-9c4.967,0,9,4.032,9,9v18
				C535.499,312.466,531.466,316.499,526.499,316.499z"/>
			<path fill="#414042" d="M526.499,568.5c-4.969,0-9-4.033-9-9V379.499c0-4.969,4.031-9,9-9c4.967,0,9,4.032,9,9V559.5
				C535.499,564.467,531.466,568.5,526.499,568.5z"/>
		</g>
	</g>
	<path fill="#414042" d="M436.497,514.5c-14.885,0-27-12.115-27-27c0-14.887,12.115-27,27-27c14.887,0,27.002,12.113,27.002,27
		C463.499,502.385,451.384,514.5,436.497,514.5z M436.497,478.5c-4.959,0-9,4.031-9,9c0,4.967,4.041,9,9,9
		c4.961,0,9.002-4.033,9.002-9C445.499,482.531,441.458,478.5,436.497,478.5z"/>
	<path fill="#414042" d="M346.493,424.5c-14.887,0-27-12.115-27-27.002c0-14.886,12.113-27,27-27s27.002,12.114,27.002,27
		C373.495,412.385,361.38,424.5,346.493,424.5z M346.493,388.499c-4.959,0-9,4.033-9,9c0,4.969,4.041,9,9,9s9-4.031,9-9
		C355.493,392.531,351.452,388.499,346.493,388.499z"/>
	<path fill="#414042" d="M526.499,388.499c-14.887,0-27-12.115-27-27c0-14.886,12.113-27,27-27c14.885,0,27,12.114,27,27
		C553.499,376.384,541.384,388.499,526.499,388.499z M526.499,352.499c-4.959,0-9,4.032-9,9s4.041,9,9,9s9-4.032,9-9
		S531.458,352.499,526.499,352.499z"/>
</g>
</svg>
